<svg width="97" height="70" viewBox="0 0 97 70" fill="none" xmlns="http://www.w3.org/2000/svg">
<path d="M42.0105 65.952H48.9225L63.6105 7.008H54.9705L55.7385 3.648L72.9225 0L68.0265 19.2L68.7945 19.488C70.0745 16.736 71.3545 14.176 72.6345 11.808C73.9785 9.376 75.3865 7.296 76.8585 5.568C78.3305 3.84 79.8985 2.496 81.5625 1.536C83.2265 0.512001 85.0825 0 87.1305 0C90.3945 0 92.7625 1.216 94.2345 3.648C95.7705 6.016 96.5385 9.44 96.5385 13.92C96.5385 16.544 96.2825 19.296 95.7705 22.176C95.2585 25.056 94.5225 27.904 93.5625 30.72C92.6025 33.536 91.3865 36.224 89.9145 38.784C88.5065 41.344 86.8745 43.584 85.0185 45.504C83.2265 47.424 81.2105 48.96 78.9705 50.112C76.7305 51.264 74.3305 51.84 71.7705 51.84C69.2105 51.84 67.1625 51.328 65.6265 50.304C64.1545 49.28 63.0665 47.584 62.3625 45.216H61.4985L56.6985 65.952H65.5305L64.5705 69.888H41.0505L42.0105 65.952ZM69.7545 46.944C73.2105 46.944 76.3785 45.408 79.2585 42.336C82.1385 39.264 84.3785 34.784 85.9785 28.896C86.2345 27.872 86.4905 26.688 86.7465 25.344C87.0665 24 87.3545 22.624 87.6105 21.216C87.8665 19.808 88.0585 18.464 88.1865 17.184C88.3785 15.904 88.4745 14.816 88.4745 13.92C88.4745 11.424 88.2185 9.504 87.7065 8.16C87.1945 6.816 86.1705 6.144 84.6345 6.144C83.1625 6.144 81.6905 6.72 80.2185 7.872C78.7465 8.96 77.3065 10.4 75.8985 12.192C74.5545 13.92 73.2425 15.904 71.9625 18.144C70.6825 20.32 69.5305 22.464 68.5065 24.576C67.4825 26.688 66.5865 28.672 65.8185 30.528C65.1145 32.384 64.6025 33.856 64.2825 34.944L63.8985 36.288C63.0025 39.36 63.0345 41.92 63.9945 43.968C65.0185 45.952 66.9385 46.944 69.7545 46.944Z" fill="black"/>
<path d="M17.76 50.688L0 1.15198H10.848L17.664 22.08L24.096 41.952H24.672L31.104 22.08L37.92 1.15198H48.384L30.624 50.688H17.76Z" fill="black"/>
</svg>
