<svg width="598" height="93" viewBox="0 0 598 93" fill="none" xmlns="http://www.w3.org/2000/svg">
<path d="M544.876 92.2559C542.508 92.2559 540.652 91.6799 539.308 90.5279C537.9 89.4399 537.196 88.0319 537.196 86.3039C537.196 84.5759 537.772 83.0719 538.924 81.7919C540.012 80.5759 541.42 79.9679 543.148 79.9679C544.62 79.9679 545.772 80.3839 546.604 81.2159C547.372 82.1119 547.756 83.1999 547.756 84.4799C547.756 85.3119 547.564 86.1119 547.18 86.8799C546.86 87.6479 546.444 88.2559 545.932 88.7039L546.604 89.1839C548.716 88.2239 550.796 86.5919 552.844 84.2879C554.956 82.0479 557.196 78.6239 559.564 74.0159L555.628 26.3039H551.308L552.268 22.3679H570.316L569.356 26.3039H563.404L565.804 62.9759H566.572L586.924 26.3039H580.972L581.932 22.3679H597.196L596.236 26.3039H592.204L561.292 78.8159C558.348 83.8079 555.468 87.2959 552.652 89.2799C549.9 91.2639 547.308 92.2559 544.876 92.2559Z" fill="black"/>
<path d="M515.591 28.2241H506.951L507.719 24.8641L524.807 21.2161L520.103 39.9361L520.871 40.2241C522.087 37.2801 523.271 34.6241 524.423 32.2561C525.639 29.8881 526.919 27.9041 528.263 26.3041C529.607 24.6401 531.047 23.3921 532.583 22.5601C534.183 21.6641 535.943 21.2161 537.863 21.2161C540.295 21.2161 542.151 21.8241 543.431 23.0401C544.711 24.1921 545.351 25.6641 545.351 27.4561C545.351 29.1201 544.807 30.5921 543.719 31.8721C542.631 33.1521 541.191 33.7921 539.399 33.7921C537.927 33.7921 536.775 33.3761 535.943 32.5441C535.111 31.6481 534.695 30.5601 534.695 29.2801C534.695 28.4481 534.887 27.6481 535.271 26.8801C535.655 26.1121 536.103 25.5041 536.615 25.0561L536.039 24.4801C534.055 24.8001 532.007 26.3041 529.895 28.9921C527.783 31.6801 525.703 35.0721 523.655 39.1681C523.207 40.0641 522.599 41.3441 521.831 43.0081C521.127 44.6081 520.359 46.4001 519.527 48.3841C518.695 50.3681 517.863 52.4481 517.031 54.6241C516.263 56.8001 515.655 58.8481 515.207 60.7681L512.423 71.9041H504.743L515.591 28.2241Z" fill="black"/>
<path d="M476.089 73.056C474.169 73.056 472.729 72.512 471.769 71.424C470.873 70.272 470.425 68.96 470.425 67.488C470.425 66.784 470.521 66.048 470.713 65.28C470.905 64.448 471.065 63.744 471.193 63.168L480.313 26.688H471.673L472.729 22.368H477.049C478.905 22.368 480.249 22.048 481.081 21.408C481.913 20.704 482.713 19.616 483.481 18.144L487.897 9.50403H492.313L489.049 22.368H501.529L500.473 26.688H487.993L478.009 66.72L479.545 67.584L493.369 57.408L495.481 59.712L485.785 67.872C484.441 69.024 483.321 69.952 482.425 70.656C481.529 71.296 480.729 71.776 480.025 72.096C479.321 72.48 478.649 72.736 478.009 72.864C477.433 72.992 476.793 73.056 476.089 73.056Z" fill="black"/>
<path d="M436.699 73.0561C432.347 73.0561 429.211 71.8081 427.291 69.3121C425.371 66.8161 424.411 63.0401 424.411 57.9841C424.411 55.6161 424.603 53.0561 424.987 50.3041C425.435 47.5521 426.107 44.8321 427.003 42.1441C427.899 39.3921 429.019 36.7681 430.363 34.2721C431.771 31.7121 433.403 29.4721 435.259 27.5521C437.179 25.6321 439.323 24.0961 441.691 22.9441C444.123 21.7921 446.844 21.2161 449.852 21.2161C451.196 21.2161 452.539 21.3761 453.883 21.6961C455.291 21.9521 456.571 22.4641 457.723 23.2321C458.875 23.9361 459.803 24.8961 460.507 26.1121C461.275 27.3281 461.659 28.8641 461.659 30.7201C461.659 32.5761 461.211 34.4001 460.315 36.1921C459.483 37.9841 458.011 39.6161 455.899 41.0881C453.787 42.5601 450.939 43.8081 447.355 44.8321C443.835 45.8561 439.419 46.5601 434.107 46.9441C433.659 48.9281 433.243 51.0081 432.859 53.1841C432.539 55.2961 432.379 57.2481 432.379 59.0401C432.379 61.7281 432.891 63.8401 433.915 65.3761C435.003 66.8481 436.699 67.5841 439.003 67.5841C441.883 67.5841 444.635 66.3681 447.259 63.9361C449.947 61.5041 452.507 58.1121 454.939 53.7601L457.915 55.2001C456.315 58.2721 454.747 60.9601 453.211 63.2641C451.675 65.5041 450.043 67.3601 448.315 68.8321C446.651 70.2401 444.859 71.2961 442.939 72.0001C441.083 72.7041 439.003 73.0561 436.699 73.0561ZM434.779 43.9681C441.563 43.2001 446.491 41.8241 449.563 39.8401C452.699 37.8561 454.267 35.0401 454.267 31.3921C454.267 29.6001 453.852 28.1281 453.02 26.9761C452.252 25.7601 450.779 25.1521 448.603 25.1521C447.195 25.1521 445.851 25.4721 444.571 26.1121C443.291 26.6881 442.075 27.7121 440.923 29.1841C439.771 30.6561 438.683 32.6081 437.659 35.0401C436.635 37.4081 435.675 40.3841 434.779 43.9681Z" fill="black"/>
<path d="M389.17 69.1201C391.09 69.1201 392.818 68.6721 394.354 67.7761C395.954 66.8801 397.362 65.6641 398.578 64.1281C399.794 62.5921 400.818 60.8001 401.65 58.7521C402.546 56.6401 403.282 54.4321 403.858 52.1281C404.562 49.3121 405.138 46.9761 405.586 45.1201C406.034 43.2001 406.386 41.6001 406.642 40.3201C406.898 39.0401 407.058 37.9841 407.122 37.1521C407.25 36.3201 407.314 35.5201 407.314 34.7521C407.314 31.8721 406.77 29.5681 405.682 27.8401C404.658 26.0481 402.802 25.1521 400.114 25.1521C398.194 25.1521 396.434 25.6001 394.834 26.4961C393.298 27.3921 391.922 28.6081 390.706 30.1441C389.49 31.6801 388.434 33.5041 387.538 35.6161C386.706 37.6641 386.002 39.8401 385.426 42.1441C384.722 44.9601 384.146 47.3281 383.698 49.2481C383.25 51.1041 382.898 52.6721 382.642 53.9521C382.386 55.2321 382.194 56.2881 382.066 57.1201C382.002 57.9521 381.97 58.7521 381.97 59.5201C381.97 62.4001 382.482 64.7361 383.506 66.5281C384.594 68.2561 386.482 69.1201 389.17 69.1201ZM388.882 73.0561C384.018 73.0561 380.37 71.5201 377.938 68.4481C375.57 65.3121 374.386 61.0881 374.386 55.7761C374.386 52.1281 374.962 48.2881 376.114 44.2561C377.266 40.1601 378.93 36.4161 381.106 33.0241C383.346 29.5681 386.066 26.7521 389.266 24.5761C392.53 22.3361 396.242 21.2161 400.402 21.2161C405.266 21.2161 408.882 22.7841 411.25 25.9201C413.682 28.9921 414.898 33.1841 414.898 38.4961C414.898 42.1441 414.322 46.0161 413.17 50.1121C412.018 54.1441 410.322 57.8881 408.082 61.3441C405.906 64.7361 403.186 67.5521 399.922 69.7921C396.722 71.9681 393.042 73.0561 388.882 73.0561Z" fill="black"/>
<path d="M310.623 87.1681H317.535L332.223 28.2241H323.583L324.351 24.8641L341.535 21.2161L336.639 40.4161L337.407 40.7041C338.687 37.9521 339.967 35.3921 341.247 33.0241C342.591 30.5921 343.999 28.5121 345.471 26.7841C346.943 25.0561 348.511 23.7121 350.175 22.7521C351.839 21.7281 353.695 21.2161 355.743 21.2161C359.007 21.2161 361.375 22.4321 362.847 24.8641C364.383 27.2321 365.151 30.6561 365.151 35.1361C365.151 37.7601 364.895 40.5121 364.383 43.3921C363.871 46.2721 363.135 49.1201 362.175 51.9361C361.215 54.7521 359.999 57.4401 358.527 60.0001C357.119 62.5601 355.487 64.8001 353.631 66.7201C351.839 68.6401 349.823 70.1761 347.583 71.3281C345.343 72.4801 342.943 73.0561 340.383 73.0561C337.823 73.0561 335.775 72.5441 334.239 71.5201C332.767 70.4961 331.679 68.8001 330.975 66.4321H330.111L325.311 87.1681H334.143L333.183 91.1041H309.663L310.623 87.1681ZM338.367 68.1601C341.823 68.1601 344.991 66.6241 347.871 63.5521C350.751 60.4801 352.991 56.0001 354.591 50.1121C354.847 49.0881 355.103 47.9041 355.359 46.5601C355.679 45.2161 355.967 43.8401 356.223 42.4321C356.479 41.0241 356.671 39.6801 356.799 38.4001C356.991 37.1201 357.087 36.0321 357.087 35.1361C357.087 32.6401 356.831 30.7201 356.319 29.3761C355.807 28.0321 354.783 27.3601 353.247 27.3601C351.775 27.3601 350.303 27.9361 348.831 29.0881C347.359 30.1761 345.919 31.6161 344.511 33.4081C343.167 35.1361 341.855 37.1201 340.575 39.3601C339.295 41.5361 338.143 43.6801 337.119 45.7921C336.095 47.9041 335.199 49.8881 334.431 51.7441C333.727 53.6001 333.215 55.0721 332.895 56.1601L332.511 57.5041C331.615 60.5761 331.647 63.1361 332.607 65.1841C333.631 67.1681 335.551 68.1601 338.367 68.1601Z" fill="black"/>
<path d="M271.204 63.456H287.62V9.31201H271.204V0.864014H298.084V63.456H314.5V71.904H271.204V63.456Z" fill="black"/>
<path d="M257.514 71.9041C254.506 71.9041 252.234 71.1361 250.698 69.6001C249.226 68.0641 248.33 66.0481 248.01 63.5521H247.53C246.57 66.5601 244.81 68.8961 242.25 70.5601C239.754 72.2241 236.554 73.0561 232.65 73.0561C227.594 73.0561 223.562 71.7441 220.554 69.1201C217.546 66.4321 216.042 62.7521 216.042 58.0801C216.042 53.2801 217.802 49.6321 221.322 47.1361C224.906 44.5761 230.378 43.2961 237.738 43.2961H247.242V39.4561C247.242 32.7361 243.69 29.3761 236.586 29.3761C233.386 29.3761 230.794 30.0161 228.81 31.2961C226.826 32.5121 225.162 34.1441 223.818 36.1921L217.578 31.1041C218.986 28.4161 221.354 26.1121 224.682 24.1921C228.01 22.2081 232.298 21.2161 237.546 21.2161C243.818 21.2161 248.746 22.7201 252.33 25.7281C255.914 28.7361 257.706 33.0881 257.706 38.7841V63.6481H263.946V71.9041H257.514ZM235.626 65.3761C239.018 65.3761 241.802 64.6081 243.978 63.0721C246.154 61.5361 247.242 59.5521 247.242 57.1201V49.9201H237.93C230.378 49.9201 226.602 52.1921 226.602 56.7361V58.6561C226.602 60.8961 227.402 62.5921 229.002 63.7441C230.602 64.8321 232.81 65.3761 235.626 65.3761Z" fill="black"/>
<path d="M195.631 63.4559H195.151C194.639 64.7359 193.967 65.9839 193.135 67.1999C192.367 68.3519 191.407 69.3759 190.255 70.2719C189.103 71.1039 187.759 71.7759 186.223 72.2879C184.687 72.7999 182.895 73.0559 180.847 73.0559C175.855 73.0559 171.823 71.4239 168.751 68.1599C165.679 64.8959 164.143 60.2559 164.143 54.2399V22.3679H174.607V52.7039C174.607 60.5759 178.031 64.5119 184.879 64.5119C186.223 64.5119 187.535 64.3519 188.815 64.0319C190.095 63.6479 191.247 63.1039 192.271 62.3999C193.295 61.6959 194.095 60.8319 194.671 59.8079C195.311 58.7199 195.631 57.4399 195.631 55.9679V22.3679H206.095V71.9039H195.631V63.4559Z" fill="black"/>
<path d="M131.733 73.0561C126.357 73.0561 121.717 72.1921 117.813 70.4641C113.973 68.7361 110.869 66.4321 108.501 63.5521L114.933 57.7921C117.109 60.1601 119.541 61.9841 122.229 63.2641C124.981 64.4801 128.213 65.0881 131.925 65.0881C135.317 65.0881 138.037 64.5121 140.085 63.3601C142.197 62.2081 143.253 60.4161 143.253 57.9841C143.253 56.9601 143.061 56.0961 142.677 55.3921C142.293 54.6881 141.749 54.1121 141.045 53.6641C140.341 53.2161 139.509 52.8641 138.549 52.6081C137.653 52.3521 136.693 52.1601 135.669 52.0321L127.797 50.7841C125.877 50.5281 123.925 50.1121 121.941 49.5361C119.957 48.9601 118.165 48.1601 116.565 47.1361C115.029 46.0481 113.749 44.6721 112.725 43.0081C111.765 41.3441 111.285 39.2321 111.285 36.6721C111.285 31.6161 113.205 27.7761 117.045 25.1521C120.949 22.5281 126.069 21.2161 132.405 21.2161C137.013 21.2161 140.981 21.9201 144.309 23.3281C147.701 24.6721 150.517 26.5601 152.757 28.9921L146.901 35.1361C145.621 33.6641 143.797 32.3201 141.429 31.1041C139.061 29.8241 135.925 29.1841 132.021 29.1841C125.045 29.1841 121.557 31.3921 121.557 35.8081C121.557 37.9201 122.293 39.3921 123.765 40.2241C125.301 40.9921 127.093 41.5041 129.141 41.7601L137.013 43.0081C138.997 43.3281 140.949 43.7441 142.869 44.2561C144.853 44.7681 146.613 45.5681 148.149 46.6561C149.749 47.6801 151.029 49.0241 151.989 50.6881C153.013 52.3521 153.525 54.4641 153.525 57.0241C153.525 62.0161 151.573 65.9521 147.669 68.8321C143.829 71.6481 138.517 73.0561 131.733 73.0561Z" fill="black"/>
<path d="M80.9864 13.344C78.2984 13.344 76.4104 12.8 75.3224 11.712C74.2984 10.624 73.7864 9.28 73.7864 7.68V5.664C73.7864 4.064 74.2984 2.72 75.3224 1.632C76.4104 0.543999 78.2664 0 80.8904 0C83.5784 0 85.4344 0.543999 86.4584 1.632C87.5464 2.72 88.0904 4.064 88.0904 5.664V7.68C88.0904 9.28 87.5464 10.624 86.4584 11.712C85.4344 12.8 83.6104 13.344 80.9864 13.344ZM58.8104 63.456H75.7064V30.816H58.8104V22.368H86.1704V63.456H102.01V71.904H58.8104V63.456Z" fill="black"/>
<path d="M17.76 71.9039L0 22.3679H10.848L17.664 43.2959L24.096 63.1679H24.672L31.104 43.2959L37.92 22.3679H48.384L30.624 71.9039H17.76Z" fill="black"/>
</svg>
